<svg xmlns="http://www.w3.org/2000/svg" width="160" height="160" viewBox="0 0 160 160">
  <!-- Seamless heraldic pattern: trust motifs (shield, key, scroll, seal) in bronze on transparent -->
  <!-- Designed to tile at low opacity over cream or green backgrounds -->
  <defs>
    <pattern id="heraldic" x="0" y="0" width="160" height="160" patternUnits="userSpaceOnUse">
      <!-- Shield outline -->
      <g transform="translate(20,15) scale(0.5)" fill="none" stroke="#8b6914" stroke-width="2">
        <path d="M5 2 L45 2 L45 28 Q45 48 25 58 Q5 48 5 28 Z"/>
        <line x1="25" y1="12" x2="25" y2="40" stroke-width="1"/>
        <path d="M12 20 Q25 14 38 20" stroke-width="1"/>
      </g>
      <!-- Key -->
      <g transform="translate(95,20) scale(0.45)" fill="none" stroke="#8b6914" stroke-width="2">
        <circle cx="12" cy="12" r="10"/>
        <circle cx="12" cy="12" r="4" fill="#8b6914"/>
        <line x1="12" y1="22" x2="12" y2="48"/>
        <line x1="12" y1="38" x2="20" y2="38"/>
        <line x1="12" y1="42" x2="18" y2="42"/>
      </g>
      <!-- Scroll/document -->
      <g transform="translate(15,80) scale(0.4)" fill="none" stroke="#8b6914" stroke-width="2">
        <rect x="5" y="5" width="50" height="40" rx="2"/>
        <line x1="12" y1="15" x2="48" y2="15" stroke-width="1"/>
        <line x1="12" y1="22" x2="48" y2="22" stroke-width="1"/>
        <line x1="12" y1="29" x2="38" y2="29" stroke-width="1"/>
        <line x1="12" y1="36" x2="42" y2="36" stroke-width="1"/>
      </g>
      <!-- Seal/wax circle -->
      <g transform="translate(90,85) scale(0.4)" fill="none" stroke="#8b6914" stroke-width="2">
        <circle cx="25" cy="25" r="20"/>
        <circle cx="25" cy="25" r="14" stroke-width="1"/>
        <path d="M18 25 L22 30 L33 18" stroke-width="2"/>
      </g>
      <!-- Laurel accents -->
      <g transform="translate(70,55) scale(0.3)" fill="none" stroke="#8b6914" stroke-width="1.5">
        <path d="M0 0 Q-8 -6 -12 -2 Q-10 4 -4 6"/>
        <path d="M0 0 Q8 -6 12 -2 Q10 4 4 6"/>
        <line x1="0" y1="0" x2="0" y2="14"/>
      </g>
      <!-- Corner registration marks -->
      <g transform="translate(0,0)" fill="none" stroke="#8b6914" stroke-width="1">
        <path d="M2 8 L2 2 L8 2"/>
      </g>
      <g transform="translate(152,0) scale(-1,1)" fill="none" stroke="#8b6914" stroke-width="1">
        <path d="M2 8 L2 2 L8 2"/>
      </g>
      <g transform="translate(0,152) scale(1,-1)" fill="none" stroke="#8b6914" stroke-width="1">
        <path d="M2 8 L2 2 L8 2"/>
      </g>
      <g transform="translate(152,152) scale(-1,-1)" fill="none" stroke="#8b6914" stroke-width="1">
        <path d="M2 8 L2 2 L8 2"/>
      </g>
    </pattern>
  </defs>
  <rect width="160" height="160" fill="url(#heraldic)"/>
</svg>